<svg width="101" height="62" viewBox="0 0 101 62" fill="none" xmlns="http://www.w3.org/2000/svg">
<g clip-path="url(#clip0_15_1377)">
<path d="M0 43.768V43.6338C0 33.5681 7.07148 25.2728 17.1852 25.2728C28.7946 25.2728 34.111 34.4198 34.111 44.4236C34.111 45.0017 34.0754 45.647 34.0296 46.3129C34.0041 46.731 33.6582 47.0562 33.2461 47.0562H9.79323C10.7649 51.5987 13.8784 53.968 18.2892 53.968C20.7718 53.968 22.7407 53.3744 24.7196 51.9962C25.1826 51.671 25.6506 51.3045 26.1187 50.8915C26.4697 50.587 26.9886 50.587 27.3346 50.8967L31.6843 54.7991C32.0709 55.1449 32.1065 55.7437 31.7606 56.1309C28.5505 59.7804 24.0735 61.9897 18.162 61.9897C7.71758 62 0 54.5616 0 43.768ZM24.5162 40.8051C23.9311 36.3297 21.3365 33.3048 17.1903 33.3048C13.0441 33.3048 10.4444 36.2677 9.66605 40.8051H24.5162Z" fill="#00263A"/>
<path d="M88.0476 7.51851e-06C79.3176 0.0103314 72.3377 7.41255 72.3377 16.2756V25.2161L66.8636 25.2057C66.3702 25.2057 65.9683 25.6135 65.9683 26.1142V34.1204C65.9683 34.6211 66.3651 35.0237 66.8586 35.0289L72.3428 35.0392V49.6681C72.3428 49.8953 72.5717 50.0346 72.7701 49.9366C75.9192 48.3777 79.5363 48.4138 82.6956 49.9624C82.894 50.0605 83.128 49.9211 83.128 49.694L83.1179 35.0547L91.4256 35.0186C91.9191 35.0186 92.3159 34.6108 92.3159 34.1101V26.1246C92.3159 25.6239 91.914 25.2161 91.4205 25.2161H83.1433V15.9607H83.1942C83.1942 12.7913 85.7277 10.2258 88.8463 10.2258C90.8456 10.2258 92.6059 11.2788 93.6081 12.8687C93.7963 13.1681 94.1931 13.2352 94.4577 13.0029L100.786 7.48481C101.005 7.29382 101.051 6.9583 100.883 6.72085C98.0443 2.64808 93.3486 -0.00515442 88.0476 7.51851e-06Z" fill="#00263A"/>
<path d="M60.8706 25.247H54.4198V11.2427C54.4198 10.9072 54.1502 10.6387 53.8246 10.6387L44.9217 10.6491H44.1026C43.7719 10.6491 43.5074 10.9226 43.5074 11.2582L43.5175 25.2522H37.0616C36.5682 25.2522 36.1663 25.66 36.1663 26.1607V34.1617C36.1663 34.6624 36.5682 35.0702 37.0616 35.0702H43.5277L43.543 61.3806C43.543 61.7161 43.8126 61.9845 44.1382 61.9845H49.4952C49.7496 61.9845 49.887 61.6799 49.7191 61.4838C48.4981 60.0539 47.8062 58.1595 47.9334 56.1205C48.1623 52.5124 50.879 49.6784 54.2825 49.2139C54.369 49.2035 54.43 49.1313 54.43 49.0435V35.065H60.8808C61.3743 35.065 61.7762 34.6572 61.7762 34.1565V26.1555C61.7762 25.6548 61.3743 25.247 60.8808 25.247H60.8706Z" fill="#00263A"/>
<path d="M77.7301 51.3406C74.7489 51.3406 72.4138 53.6635 72.4138 56.6626C72.4138 59.6616 74.7337 61.8916 77.6945 61.8916C80.6554 61.8916 83.0261 59.5791 83.0261 56.5903C83.0261 53.6015 80.7012 51.3458 77.7301 51.3458V51.3406ZM77.6945 53.7099C79.2513 53.7099 80.4214 54.9643 80.4214 56.6264V56.6626C80.4214 58.3195 79.2869 59.5223 77.7301 59.5223C76.1734 59.5223 75.0186 58.2524 75.0186 56.5903C75.0186 54.9282 76.1429 53.7099 77.6945 53.7099Z" fill="#00263A"/>
<path d="M95.5566 51.4284C94.2695 51.4284 93.2265 51.9394 92.3719 52.9924C91.7665 51.9807 90.7541 51.4284 89.4873 51.4284C88.2205 51.4284 87.3608 52.0478 86.7859 52.724V51.7123C86.7859 51.5471 86.6536 51.4077 86.4857 51.4077H84.4813C84.3185 51.4077 84.1812 51.5419 84.1812 51.7123V61.8916H86.7808V56.1309C86.7808 54.7733 87.4981 53.9009 88.6123 53.9009C89.7264 53.9009 90.3369 54.6752 90.3369 56.0741V61.8916H92.9366V56.1309C92.9366 54.732 93.6234 53.9009 94.768 53.9009C96.1925 53.9009 96.4926 55.0933 96.4926 56.0948V61.8916H99.0923V55.4031C99.0923 52.915 97.7645 51.4284 95.5464 51.4284H95.5566Z" fill="#00263A"/>
<path d="M55.7783 61.6954C58.5402 61.6954 60.7792 59.4237 60.7792 56.6213C60.7792 53.8189 58.5402 51.5471 55.7783 51.5471C53.0163 51.5471 50.7773 53.8189 50.7773 56.6213C50.7773 59.4237 53.0163 61.6954 55.7783 61.6954Z" fill="#649E92"/>
<path d="M67.8199 59.5171C66.309 59.5481 65.1643 58.2731 65.1643 56.5851C65.1643 54.8972 66.2886 53.7203 67.7284 53.7099C68.7967 53.6996 69.6158 54.4016 69.9821 54.7785C70.0991 54.9023 70.2975 54.9023 70.4145 54.7785L71.6711 53.4157C71.7779 53.3021 71.7779 53.1215 71.6711 53.0079C71.2387 52.5124 69.977 51.3458 67.7436 51.3458C64.8387 51.3458 62.5647 53.6583 62.5596 56.6471C62.5545 59.2693 64.5538 61.489 67.1128 61.8348C69.6718 62.1807 71.2183 60.6527 71.7271 60.0643C71.8339 59.9455 71.8237 59.7649 71.7118 59.6513L70.5163 58.4537C70.3993 58.335 70.211 58.3402 70.0991 58.4537C69.743 58.8151 68.9239 59.4913 67.8199 59.5119V59.5171Z" fill="#00263A"/>
</g>
<defs>
<clipPath id="clip0_15_1377">
<rect width="101" height="62" fill="white"/>
</clipPath>
</defs>
</svg>
